<?xml version="1.0" encoding="UTF-8" standalone="no"?>
<!DOCTYPE svg PUBLIC "-//W3C//DTD SVG 1.1//EN"
 "http://www.w3.org/Graphics/SVG/1.1/DTD/svg11.dtd">
<!-- Generated by graphviz version 13.1.2 (20250809.0930)
 -->
<!-- Title: snakemake_dag Pages: 1 -->
<svg width="595pt" height="1268pt"
 viewBox="0.00 0.00 595.00 1268.00" xmlns="http://www.w3.org/2000/svg" xmlns:xlink="http://www.w3.org/1999/xlink">
<g id="graph0" class="graph" transform="scale(1 1) rotate(0) translate(4 1264)">
<title>snakemake_dag</title>
<polygon fill="white" stroke="none" points="-4,4 -4,-1264 590.68,-1264 590.68,4 -4,4"/>
<!-- 0 -->
<g id="node1" class="node">
<title>0</title>
<path fill="none" stroke="#d85656" stroke-width="2" d="M203.88,-36C203.88,-36 173.88,-36 173.88,-36 167.88,-36 161.88,-30 161.88,-24 161.88,-24 161.88,-12 161.88,-12 161.88,-6 167.88,0 173.88,0 173.88,0 203.88,0 203.88,0 209.88,0 215.88,-6 215.88,-12 215.88,-12 215.88,-24 215.88,-24 215.88,-30 209.88,-36 203.88,-36"/>
<text xml:space="preserve" text-anchor="middle" x="188.88" y="-15.62" font-family="sans" font-size="10.00">all</text>
</g>
<!-- 1 -->
<g id="node2" class="node">
<title>1</title>
<path fill="none" stroke="#d8ac56" stroke-width="2" d="M111.88,-108C111.88,-108 65.88,-108 65.88,-108 59.88,-108 53.88,-102 53.88,-96 53.88,-96 53.88,-84 53.88,-84 53.88,-78 59.88,-72 65.88,-72 65.88,-72 111.88,-72 111.88,-72 117.88,-72 123.88,-78 123.88,-84 123.88,-84 123.88,-96 123.88,-96 123.88,-102 117.88,-108 111.88,-108"/>
<text xml:space="preserve" text-anchor="middle" x="88.88" y="-87.62" font-family="sans" font-size="10.00">install_paup</text>
</g>
<!-- 1&#45;&gt;0 -->
<g id="edge3" class="edge">
<title>1&#45;&gt;0</title>
<path fill="none" stroke="grey" stroke-width="2" d="M114.37,-71.15C126.12,-62.93 140.28,-53.02 153.08,-44.06"/>
<polygon fill="grey" stroke="grey" stroke-width="2" points="154.76,-47.15 160.95,-38.55 150.75,-41.42 154.76,-47.15"/>
</g>
<!-- 2 -->
<g id="node3" class="node">
<title>2</title>
<path fill="none" stroke="#5663d8" stroke-width="2" d="M359.25,-180C359.25,-180 300.5,-180 300.5,-180 294.5,-180 288.5,-174 288.5,-168 288.5,-168 288.5,-156 288.5,-156 288.5,-150 294.5,-144 300.5,-144 300.5,-144 359.25,-144 359.25,-144 365.25,-144 371.25,-150 371.25,-156 371.25,-156 371.25,-168 371.25,-168 371.25,-174 365.25,-180 359.25,-180"/>
<text xml:space="preserve" text-anchor="middle" x="329.88" y="-159.62" font-family="sans" font-size="10.00">results_to_xlsx</text>
</g>
<!-- 2&#45;&gt;0 -->
<g id="edge2" class="edge">
<title>2&#45;&gt;0</title>
<path fill="none" stroke="grey" stroke-width="2" d="M313.2,-143.01C296.25,-124.85 269.1,-96.12 244.88,-72 236.19,-63.35 226.56,-54.11 217.76,-45.81"/>
<polygon fill="grey" stroke="grey" stroke-width="2" points="220.18,-43.28 210.49,-38.99 215.39,-48.38 220.18,-43.28"/>
</g>
<!-- 3 -->
<g id="node4" class="node">
<title>3</title>
<path fill="none" stroke="#56d873" stroke-width="2" d="M364.12,-252C364.12,-252 295.62,-252 295.62,-252 289.62,-252 283.62,-246 283.62,-240 283.62,-240 283.62,-228 283.62,-228 283.62,-222 289.62,-216 295.62,-216 295.62,-216 364.12,-216 364.12,-216 370.12,-216 376.12,-222 376.12,-228 376.12,-228 376.12,-240 376.12,-240 376.12,-246 370.12,-252 364.12,-252"/>
<text xml:space="preserve" text-anchor="middle" x="329.88" y="-231.62" font-family="sans" font-size="10.00">predict_combine</text>
</g>
<!-- 3&#45;&gt;2 -->
<g id="edge5" class="edge">
<title>3&#45;&gt;2</title>
<path fill="none" stroke="grey" stroke-width="2" d="M329.88,-215.34C329.88,-208.75 329.88,-201.08 329.88,-193.67"/>
<polygon fill="grey" stroke="grey" stroke-width="2" points="333.38,-193.93 329.88,-183.93 326.38,-193.93 333.38,-193.93"/>
</g>
<!-- 30 -->
<g id="node31" class="node">
<title>30</title>
<path fill="none" stroke="#567bd8" stroke-width="2" d="M194.38,-180C194.38,-180 139.38,-180 139.38,-180 133.38,-180 127.38,-174 127.38,-168 127.38,-168 127.38,-156 127.38,-156 127.38,-150 133.38,-144 139.38,-144 139.38,-144 194.38,-144 194.38,-144 200.38,-144 206.38,-150 206.38,-156 206.38,-156 206.38,-168 206.38,-168 206.38,-174 200.38,-180 194.38,-180"/>
<text xml:space="preserve" text-anchor="middle" x="166.88" y="-159.62" font-family="sans" font-size="10.00">results_to_tsv</text>
</g>
<!-- 3&#45;&gt;30 -->
<g id="edge44" class="edge">
<title>3&#45;&gt;30</title>
<path fill="none" stroke="grey" stroke-width="2" d="M288.32,-215.15C267.21,-206.09 241.36,-194.99 218.94,-185.36"/>
<polygon fill="grey" stroke="grey" stroke-width="2" points="220.58,-182.25 210.01,-181.52 217.81,-188.69 220.58,-182.25"/>
</g>
<!-- 4 -->
<g id="node5" class="node">
<title>4</title>
<path fill="none" stroke="#56d882" stroke-width="2" d="M404.12,-828C404.12,-828 347.62,-828 347.62,-828 341.62,-828 335.62,-822 335.62,-816 335.62,-816 335.62,-804 335.62,-804 335.62,-798 341.62,-792 347.62,-792 347.62,-792 404.12,-792 404.12,-792 410.12,-792 416.12,-798 416.12,-804 416.12,-804 416.12,-816 416.12,-816 416.12,-822 410.12,-828 404.12,-828"/>
<text xml:space="preserve" text-anchor="middle" x="375.88" y="-807.62" font-family="sans" font-size="10.00">predict_family</text>
</g>
<!-- 4&#45;&gt;3 -->
<g id="edge11" class="edge">
<title>4&#45;&gt;3</title>
<path fill="none" stroke="grey" stroke-width="2" d="M400.69,-791.17C411.85,-781.9 424.21,-769.66 431.88,-756 451.68,-720.73 450.88,-707.45 450.88,-667 450.88,-667 450.88,-667 450.88,-377 450.88,-326.51 406.02,-284.86 370.92,-260.01"/>
<polygon fill="grey" stroke="grey" stroke-width="2" points="373.14,-257.28 362.91,-254.54 369.2,-263.07 373.14,-257.28"/>
</g>
<!-- 25 -->
<g id="node26" class="node">
<title>25</title>
<path fill="none" stroke="#61d856" stroke-width="2" d="M410.38,-756C410.38,-756 313.38,-756 313.38,-756 307.38,-756 301.38,-750 301.38,-744 301.38,-744 301.38,-732 301.38,-732 301.38,-726 307.38,-720 313.38,-720 313.38,-720 410.38,-720 410.38,-720 416.38,-720 422.38,-726 422.38,-732 422.38,-732 422.38,-744 422.38,-744 422.38,-750 416.38,-756 410.38,-756"/>
<text xml:space="preserve" text-anchor="middle" x="361.88" y="-735.62" font-family="sans" font-size="10.00">phylo_extract_domains</text>
</g>
<!-- 4&#45;&gt;25 -->
<g id="edge39" class="edge">
<title>4&#45;&gt;25</title>
<path fill="none" stroke="grey" stroke-width="2" d="M372.34,-791.34C371.03,-784.75 369.49,-777.08 368.01,-769.67"/>
<polygon fill="grey" stroke="grey" stroke-width="2" points="371.44,-768.99 366.05,-759.87 364.58,-770.36 371.44,-768.99"/>
</g>
<!-- 5 -->
<g id="node6" class="node">
<title>5</title>
<path fill="none" stroke="#d87556" stroke-width="2" d="M533.25,-900C533.25,-900 474.5,-900 474.5,-900 468.5,-900 462.5,-894 462.5,-888 462.5,-888 462.5,-876 462.5,-876 462.5,-870 468.5,-864 474.5,-864 474.5,-864 533.25,-864 533.25,-864 539.25,-864 545.25,-870 545.25,-876 545.25,-876 545.25,-888 545.25,-888 545.25,-894 539.25,-900 533.25,-900"/>
<text xml:space="preserve" text-anchor="middle" x="503.88" y="-879.62" font-family="sans" font-size="10.00">annot_identify</text>
</g>
<!-- 5&#45;&gt;4 -->
<g id="edge13" class="edge">
<title>5&#45;&gt;4</title>
<path fill="none" stroke="grey" stroke-width="2" d="M471.24,-863.15C455.6,-854.6 436.63,-844.22 419.74,-834.99"/>
<polygon fill="grey" stroke="grey" stroke-width="2" points="421.56,-831.99 411.1,-830.26 418.2,-838.13 421.56,-831.99"/>
</g>
<!-- 27 -->
<g id="node28" class="node">
<title>27</title>
<path fill="none" stroke="#d88556" stroke-width="2" d="M497.75,-252C497.75,-252 406,-252 406,-252 400,-252 394,-246 394,-240 394,-240 394,-228 394,-228 394,-222 400,-216 406,-216 406,-216 497.75,-216 497.75,-216 503.75,-216 509.75,-222 509.75,-228 509.75,-228 509.75,-240 509.75,-240 509.75,-246 503.75,-252 497.75,-252"/>
<text xml:space="preserve" text-anchor="middle" x="451.88" y="-231.62" font-family="sans" font-size="10.00">annot_overlap_genes</text>
</g>
<!-- 5&#45;&gt;27 -->
<g id="edge41" class="edge">
<title>5&#45;&gt;27</title>
<path fill="none" stroke="grey" stroke-width="2" d="M508.64,-863.22C515.38,-836.47 526.88,-784.2 526.88,-739 526.88,-739 526.88,-739 526.88,-521 526.88,-424.7 486.6,-315.95 465.08,-264.72"/>
<polygon fill="grey" stroke="grey" stroke-width="2" points="468.39,-263.57 461.24,-255.75 461.96,-266.32 468.39,-263.57"/>
</g>
<!-- 6 -->
<g id="node7" class="node">
<title>6</title>
<path fill="none" stroke="#56d8a2" stroke-width="2" d="M246.88,-900C246.88,-900 146.88,-900 146.88,-900 140.88,-900 134.88,-894 134.88,-888 134.88,-888 134.88,-876 134.88,-876 134.88,-870 140.88,-864 146.88,-864 146.88,-864 246.88,-864 246.88,-864 252.88,-864 258.88,-870 258.88,-876 258.88,-876 258.88,-888 258.88,-888 258.88,-894 252.88,-900 246.88,-900"/>
<text xml:space="preserve" text-anchor="middle" x="196.88" y="-879.62" font-family="sans" font-size="10.00">rbhb_add_best_hit_info</text>
</g>
<!-- 6&#45;&gt;2 -->
<g id="edge9" class="edge">
<title>6&#45;&gt;2</title>
<path fill="none" stroke="grey" stroke-width="2" d="M196.88,-863.07C196.88,-836.13 196.88,-783.62 196.88,-739 196.88,-739 196.88,-739 196.88,-593 196.88,-546.03 216,-531.78 253.88,-504 303.26,-467.79 337.88,-504.73 386.88,-468 476.89,-400.51 488.4,-360.3 518.88,-252 523.21,-236.6 528.54,-228.75 518.88,-216 502.59,-194.52 434.23,-179.34 384.4,-170.89"/>
<polygon fill="grey" stroke="grey" stroke-width="2" points="385.27,-167.48 374.84,-169.32 384.14,-174.39 385.27,-167.48"/>
</g>
<!-- 6&#45;&gt;4 -->
<g id="edge14" class="edge">
<title>6&#45;&gt;4</title>
<path fill="none" stroke="grey" stroke-width="2" d="M242.51,-863.15C266.99,-853.58 297.28,-841.73 322.81,-831.75"/>
<polygon fill="grey" stroke="grey" stroke-width="2" points="324.05,-835.02 332.09,-828.12 321.5,-828.5 324.05,-835.02"/>
</g>
<!-- 17 -->
<g id="node18" class="node">
<title>17</title>
<path fill="none" stroke="#56d892" stroke-width="2" d="M194.38,-324C194.38,-324 121.38,-324 121.38,-324 115.38,-324 109.38,-318 109.38,-312 109.38,-312 109.38,-300 109.38,-300 109.38,-294 115.38,-288 121.38,-288 121.38,-288 194.38,-288 194.38,-288 200.38,-288 206.38,-294 206.38,-300 206.38,-300 206.38,-312 206.38,-312 206.38,-318 200.38,-324 194.38,-324"/>
<text xml:space="preserve" text-anchor="middle" x="157.88" y="-303.62" font-family="sans" font-size="10.00">predict_subfamily</text>
</g>
<!-- 6&#45;&gt;17 -->
<g id="edge29" class="edge">
<title>6&#45;&gt;17</title>
<path fill="none" stroke="grey" stroke-width="2" d="M188.6,-863.05C177.16,-836.53 157.88,-785.02 157.88,-739 157.88,-739 157.88,-739 157.88,-449 157.88,-410.65 157.88,-366.48 157.88,-337.72"/>
<polygon fill="grey" stroke="grey" stroke-width="2" points="161.38,-337.96 157.88,-327.96 154.38,-337.96 161.38,-337.96"/>
</g>
<!-- 24 -->
<g id="node25" class="node">
<title>24</title>
<path fill="none" stroke="#9fd856" stroke-width="2" d="M391.38,-684C391.38,-684 300.38,-684 300.38,-684 294.38,-684 288.38,-678 288.38,-672 288.38,-672 288.38,-660 288.38,-660 288.38,-654 294.38,-648 300.38,-648 300.38,-648 391.38,-648 391.38,-648 397.38,-648 403.38,-654 403.38,-660 403.38,-660 403.38,-672 403.38,-672 403.38,-678 397.38,-684 391.38,-684"/>
<text xml:space="preserve" text-anchor="middle" x="345.88" y="-663.62" font-family="sans" font-size="10.00">phylo_add_rbhb_subf</text>
</g>
<!-- 6&#45;&gt;24 -->
<g id="edge37" class="edge">
<title>6&#45;&gt;24</title>
<path fill="none" stroke="grey" stroke-width="2" d="M205.64,-863.17C221.13,-832.47 255.29,-768.27 292.88,-720 299.94,-710.92 308.45,-701.79 316.56,-693.73"/>
<polygon fill="grey" stroke="grey" stroke-width="2" points="318.84,-696.39 323.61,-686.93 313.98,-691.36 318.84,-696.39"/>
</g>
<!-- 6&#45;&gt;30 -->
<g id="edge48" class="edge">
<title>6&#45;&gt;30</title>
<path fill="none" stroke="grey" stroke-width="2" d="M166.85,-863.04C131.59,-839.41 77.88,-794.32 77.88,-739 77.88,-739 77.88,-739 77.88,-593 77.88,-492.07 1.88,-479.93 1.88,-379 1.88,-379 1.88,-379 1.88,-305 1.88,-260.47 15.49,-246.56 47.88,-216 66.47,-198.45 91.85,-186.07 114.4,-177.71"/>
<polygon fill="grey" stroke="grey" stroke-width="2" points="115.42,-181.06 123.71,-174.46 113.12,-174.44 115.42,-181.06"/>
</g>
<!-- 7 -->
<g id="node8" class="node">
<title>7</title>
<path fill="none" stroke="#56d8d0" stroke-width="2" d="M252.12,-972C252.12,-972 141.62,-972 141.62,-972 135.62,-972 129.62,-966 129.62,-960 129.62,-960 129.62,-948 129.62,-948 129.62,-942 135.62,-936 141.62,-936 141.62,-936 252.12,-936 252.12,-936 258.12,-936 264.12,-942 264.12,-948 264.12,-948 264.12,-960 264.12,-960 264.12,-966 258.12,-972 252.12,-972"/>
<text xml:space="preserve" text-anchor="middle" x="196.88" y="-951.62" font-family="sans" font-size="10.00">rbhb_find_best_reciprocal</text>
</g>
<!-- 7&#45;&gt;6 -->
<g id="edge16" class="edge">
<title>7&#45;&gt;6</title>
<path fill="none" stroke="grey" stroke-width="2" d="M196.88,-935.34C196.88,-928.75 196.88,-921.08 196.88,-913.67"/>
<polygon fill="grey" stroke="grey" stroke-width="2" points="200.38,-913.93 196.88,-903.93 193.38,-913.93 200.38,-913.93"/>
</g>
<!-- 8 -->
<g id="node9" class="node">
<title>8</title>
<path fill="none" stroke="#56c9d8" stroke-width="2" d="M324,-1044C324,-1044 221.75,-1044 221.75,-1044 215.75,-1044 209.75,-1038 209.75,-1032 209.75,-1032 209.75,-1020 209.75,-1020 209.75,-1014 215.75,-1008 221.75,-1008 221.75,-1008 324,-1008 324,-1008 330,-1008 336,-1014 336,-1020 336,-1020 336,-1032 336,-1032 336,-1038 330,-1044 324,-1044"/>
<text xml:space="preserve" text-anchor="middle" x="272.88" y="-1023.62" font-family="sans" font-size="10.00">rbhb_get_best_hits_fwd</text>
</g>
<!-- 8&#45;&gt;7 -->
<g id="edge18" class="edge">
<title>8&#45;&gt;7</title>
<path fill="none" stroke="grey" stroke-width="2" d="M253.7,-1007.34C245.21,-999.52 235.05,-990.16 225.68,-981.53"/>
<polygon fill="grey" stroke="grey" stroke-width="2" points="228.26,-979.15 218.54,-974.95 223.52,-984.3 228.26,-979.15"/>
</g>
<!-- 9 -->
<g id="node10" class="node">
<title>9</title>
<path fill="none" stroke="#56a9d8" stroke-width="2" d="M302.62,-1116C302.62,-1116 219.12,-1116 219.12,-1116 213.12,-1116 207.12,-1110 207.12,-1104 207.12,-1104 207.12,-1092 207.12,-1092 207.12,-1086 213.12,-1080 219.12,-1080 219.12,-1080 302.62,-1080 302.62,-1080 308.62,-1080 314.62,-1086 314.62,-1092 314.62,-1092 314.62,-1104 314.62,-1104 314.62,-1110 308.62,-1116 302.62,-1116"/>
<text xml:space="preserve" text-anchor="middle" x="260.88" y="-1095.62" font-family="sans" font-size="10.00">rbhb_run_blast_fwd</text>
</g>
<!-- 9&#45;&gt;8 -->
<g id="edge19" class="edge">
<title>9&#45;&gt;8</title>
<path fill="none" stroke="grey" stroke-width="2" d="M263.9,-1079.34C265.03,-1072.75 266.35,-1065.08 267.62,-1057.67"/>
<polygon fill="grey" stroke="grey" stroke-width="2" points="271.05,-1058.33 269.29,-1047.89 264.16,-1057.15 271.05,-1058.33"/>
</g>
<!-- 10 -->
<g id="node11" class="node">
<title>10</title>
<path fill="none" stroke="#56d8c1" stroke-width="2" d="M308.25,-1188C308.25,-1188 213.5,-1188 213.5,-1188 207.5,-1188 201.5,-1182 201.5,-1176 201.5,-1176 201.5,-1164 201.5,-1164 201.5,-1158 207.5,-1152 213.5,-1152 213.5,-1152 308.25,-1152 308.25,-1152 314.25,-1152 320.25,-1158 320.25,-1164 320.25,-1164 320.25,-1176 320.25,-1176 320.25,-1182 314.25,-1188 308.25,-1188"/>
<text xml:space="preserve" text-anchor="middle" x="260.88" y="-1167.62" font-family="sans" font-size="10.00">rbhb_create_strain_db</text>
</g>
<!-- 10&#45;&gt;9 -->
<g id="edge21" class="edge">
<title>10&#45;&gt;9</title>
<path fill="none" stroke="grey" stroke-width="2" d="M260.88,-1151.34C260.88,-1144.75 260.88,-1137.08 260.88,-1129.67"/>
<polygon fill="grey" stroke="grey" stroke-width="2" points="264.38,-1129.93 260.88,-1119.93 257.38,-1129.93 264.38,-1129.93"/>
</g>
<!-- 14 -->
<g id="node15" class="node">
<title>14</title>
<path fill="none" stroke="#569ad8" stroke-width="2" d="M170.12,-1116C170.12,-1116 89.62,-1116 89.62,-1116 83.62,-1116 77.62,-1110 77.62,-1104 77.62,-1104 77.62,-1092 77.62,-1092 77.62,-1086 83.62,-1080 89.62,-1080 89.62,-1080 170.12,-1080 170.12,-1080 176.12,-1080 182.12,-1086 182.12,-1092 182.12,-1092 182.12,-1104 182.12,-1104 182.12,-1110 176.12,-1116 170.12,-1116"/>
<text xml:space="preserve" text-anchor="middle" x="129.88" y="-1095.62" font-family="sans" font-size="10.00">rbhb_run_blast_rev</text>
</g>
<!-- 10&#45;&gt;14 -->
<g id="edge25" class="edge">
<title>10&#45;&gt;14</title>
<path fill="none" stroke="grey" stroke-width="2" d="M227.48,-1151.15C211.31,-1142.52 191.68,-1132.02 174.27,-1122.72"/>
<polygon fill="grey" stroke="grey" stroke-width="2" points="176.35,-1119.87 165.88,-1118.24 173.05,-1126.04 176.35,-1119.87"/>
</g>
<!-- 11 -->
<g id="node12" class="node">
<title>11</title>
<path fill="none" stroke="#d86656" stroke-width="2" d="M297.75,-1260C297.75,-1260 224,-1260 224,-1260 218,-1260 212,-1254 212,-1248 212,-1248 212,-1236 212,-1236 212,-1230 218,-1224 224,-1224 224,-1224 297.75,-1224 297.75,-1224 303.75,-1224 309.75,-1230 309.75,-1236 309.75,-1236 309.75,-1248 309.75,-1248 309.75,-1254 303.75,-1260 297.75,-1260"/>
<text xml:space="preserve" text-anchor="middle" x="260.88" y="-1239.62" font-family="sans" font-size="10.00">annot_gbk_to_faa</text>
</g>
<!-- 11&#45;&gt;10 -->
<g id="edge22" class="edge">
<title>11&#45;&gt;10</title>
<path fill="none" stroke="grey" stroke-width="2" d="M260.88,-1223.34C260.88,-1216.75 260.88,-1209.08 260.88,-1201.67"/>
<polygon fill="grey" stroke="grey" stroke-width="2" points="264.38,-1201.93 260.88,-1191.93 257.38,-1201.93 264.38,-1201.93"/>
</g>
<!-- 16 -->
<g id="node17" class="node">
<title>16</title>
<path fill="none" stroke="#d8cb56" stroke-width="2" d="M401.5,-1188C401.5,-1188 350.25,-1188 350.25,-1188 344.25,-1188 338.25,-1182 338.25,-1176 338.25,-1176 338.25,-1164 338.25,-1164 338.25,-1158 344.25,-1152 350.25,-1152 350.25,-1152 401.5,-1152 401.5,-1152 407.5,-1152 413.5,-1158 413.5,-1164 413.5,-1164 413.5,-1176 413.5,-1176 413.5,-1182 407.5,-1188 401.5,-1188"/>
<text xml:space="preserve" text-anchor="middle" x="375.88" y="-1167.62" font-family="sans" font-size="10.00">interpro_run</text>
</g>
<!-- 11&#45;&gt;16 -->
<g id="edge27" class="edge">
<title>11&#45;&gt;16</title>
<path fill="none" stroke="grey" stroke-width="2" d="M290.19,-1223.15C303.98,-1214.76 320.64,-1204.62 335.59,-1195.52"/>
<polygon fill="grey" stroke="grey" stroke-width="2" points="337.3,-1198.58 344.03,-1190.39 333.66,-1192.6 337.3,-1198.58"/>
</g>
<!-- 19 -->
<g id="node20" class="node">
<title>19</title>
<path fill="none" stroke="#c6d856" stroke-width="2" d="M67.75,-972C67.75,-972 12,-972 12,-972 6,-972 0,-966 0,-960 0,-960 0,-948 0,-948 0,-942 6,-936 12,-936 12,-936 67.75,-936 67.75,-936 73.75,-936 79.75,-942 79.75,-948 79.75,-948 79.75,-960 79.75,-960 79.75,-966 73.75,-972 67.75,-972"/>
<text xml:space="preserve" text-anchor="middle" x="39.88" y="-951.62" font-family="sans" font-size="10.00">motifs_search</text>
</g>
<!-- 11&#45;&gt;19 -->
<g id="edge31" class="edge">
<title>11&#45;&gt;19</title>
<path fill="none" stroke="grey" stroke-width="2" d="M211.02,-1234.28C158.56,-1226.12 80.99,-1210.58 61.88,-1188 13.28,-1130.57 23.47,-1034.33 32.83,-985.46"/>
<polygon fill="grey" stroke="grey" stroke-width="2" points="36.25,-986.2 34.85,-975.69 29.4,-984.78 36.25,-986.2"/>
</g>
<!-- 12 -->
<g id="node13" class="node">
<title>12</title>
<path fill="none" stroke="#56d8b1" stroke-width="2" d="M171.25,-1188C171.25,-1188 82.5,-1188 82.5,-1188 76.5,-1188 70.5,-1182 70.5,-1176 70.5,-1176 70.5,-1164 70.5,-1164 70.5,-1158 76.5,-1152 82.5,-1152 82.5,-1152 171.25,-1152 171.25,-1152 177.25,-1152 183.25,-1158 183.25,-1164 183.25,-1164 183.25,-1176 183.25,-1176 183.25,-1182 177.25,-1188 171.25,-1188"/>
<text xml:space="preserve" text-anchor="middle" x="126.88" y="-1167.62" font-family="sans" font-size="10.00">rbhb_create_ates_db</text>
</g>
<!-- 12&#45;&gt;9 -->
<g id="edge20" class="edge">
<title>12&#45;&gt;9</title>
<path fill="none" stroke="grey" stroke-width="2" d="M161.04,-1151.15C177.57,-1142.52 197.66,-1132.02 215.46,-1122.72"/>
<polygon fill="grey" stroke="grey" stroke-width="2" points="216.85,-1125.95 224.09,-1118.21 213.61,-1119.74 216.85,-1125.95"/>
</g>
<!-- 12&#45;&gt;14 -->
<g id="edge24" class="edge">
<title>12&#45;&gt;14</title>
<path fill="none" stroke="grey" stroke-width="2" d="M127.63,-1151.34C127.91,-1144.75 128.24,-1137.08 128.56,-1129.67"/>
<polygon fill="grey" stroke="grey" stroke-width="2" points="132.05,-1130.07 128.98,-1119.93 125.05,-1129.77 132.05,-1130.07"/>
</g>
<!-- 13 -->
<g id="node14" class="node">
<title>13</title>
<path fill="none" stroke="#56b9d8" stroke-width="2" d="M179.5,-1044C179.5,-1044 80.25,-1044 80.25,-1044 74.25,-1044 68.25,-1038 68.25,-1032 68.25,-1032 68.25,-1020 68.25,-1020 68.25,-1014 74.25,-1008 80.25,-1008 80.25,-1008 179.5,-1008 179.5,-1008 185.5,-1008 191.5,-1014 191.5,-1020 191.5,-1020 191.5,-1032 191.5,-1032 191.5,-1038 185.5,-1044 179.5,-1044"/>
<text xml:space="preserve" text-anchor="middle" x="129.88" y="-1023.62" font-family="sans" font-size="10.00">rbhb_get_best_hits_rev</text>
</g>
<!-- 13&#45;&gt;7 -->
<g id="edge17" class="edge">
<title>13&#45;&gt;7</title>
<path fill="none" stroke="grey" stroke-width="2" d="M146.78,-1007.34C154.11,-999.69 162.84,-990.56 170.96,-982.08"/>
<polygon fill="grey" stroke="grey" stroke-width="2" points="173.26,-984.73 177.65,-975.09 168.2,-979.89 173.26,-984.73"/>
</g>
<!-- 14&#45;&gt;13 -->
<g id="edge23" class="edge">
<title>14&#45;&gt;13</title>
<path fill="none" stroke="grey" stroke-width="2" d="M129.88,-1079.34C129.88,-1072.75 129.88,-1065.08 129.88,-1057.67"/>
<polygon fill="grey" stroke="grey" stroke-width="2" points="133.38,-1057.93 129.88,-1047.93 126.38,-1057.93 133.38,-1057.93"/>
</g>
<!-- 15 -->
<g id="node16" class="node">
<title>15</title>
<path fill="none" stroke="#d8bc56" stroke-width="2" d="M410.88,-900C410.88,-900 340.88,-900 340.88,-900 334.88,-900 328.88,-894 328.88,-888 328.88,-888 328.88,-876 328.88,-876 328.88,-870 334.88,-864 340.88,-864 340.88,-864 410.88,-864 410.88,-864 416.88,-864 422.88,-870 422.88,-876 422.88,-876 422.88,-888 422.88,-888 422.88,-894 416.88,-900 410.88,-900"/>
<text xml:space="preserve" text-anchor="middle" x="375.88" y="-879.62" font-family="sans" font-size="10.00">interpro_identify</text>
</g>
<!-- 15&#45;&gt;2 -->
<g id="edge7" class="edge">
<title>15&#45;&gt;2</title>
<path fill="none" stroke="grey" stroke-width="2" d="M403.81,-863.09C437.27,-839.19 488.88,-793.51 488.88,-739 488.88,-739 488.88,-739 488.88,-593 488.88,-423.12 657.13,-349.34 551.88,-216 531.45,-190.12 443.77,-175.49 384.9,-168.42"/>
<polygon fill="grey" stroke="grey" stroke-width="2" points="385.42,-164.96 375.09,-167.29 384.62,-171.91 385.42,-164.96"/>
</g>
<!-- 15&#45;&gt;4 -->
<g id="edge15" class="edge">
<title>15&#45;&gt;4</title>
<path fill="none" stroke="grey" stroke-width="2" d="M375.88,-863.34C375.88,-856.75 375.88,-849.08 375.88,-841.67"/>
<polygon fill="grey" stroke="grey" stroke-width="2" points="379.38,-841.93 375.88,-831.93 372.38,-841.93 379.38,-841.93"/>
</g>
<!-- 15&#45;&gt;30 -->
<g id="edge46" class="edge">
<title>15&#45;&gt;30</title>
<path fill="none" stroke="grey" stroke-width="2" d="M353.22,-863.05C313.36,-829.28 234.88,-751.98 234.88,-667 234.88,-667 234.88,-667 234.88,-377 234.88,-336.55 243.26,-317.77 215.88,-288 178.47,-247.33 129.81,-296.37 96.88,-252 87.34,-239.15 89.75,-230.33 96.88,-216 102.26,-205.17 111.02,-195.97 120.56,-188.42"/>
<polygon fill="grey" stroke="grey" stroke-width="2" points="122.53,-191.31 128.63,-182.64 118.46,-185.62 122.53,-191.31"/>
</g>
<!-- 16&#45;&gt;15 -->
<g id="edge26" class="edge">
<title>16&#45;&gt;15</title>
<path fill="none" stroke="grey" stroke-width="2" d="M375.88,-1151.11C375.88,-1103.56 375.88,-973.6 375.88,-913.83"/>
<polygon fill="grey" stroke="grey" stroke-width="2" points="379.38,-913.91 375.88,-903.91 372.38,-913.91 379.38,-913.91"/>
</g>
<!-- 17&#45;&gt;3 -->
<g id="edge12" class="edge">
<title>17&#45;&gt;3</title>
<path fill="none" stroke="grey" stroke-width="2" d="M201.72,-287.15C223.67,-278.22 250.49,-267.31 273.91,-257.77"/>
<polygon fill="grey" stroke="grey" stroke-width="2" points="275.06,-261.09 283,-254.08 272.42,-254.6 275.06,-261.09"/>
</g>
<!-- 18 -->
<g id="node19" class="node">
<title>18</title>
<path fill="none" stroke="#d6d856" stroke-width="2" d="M105.38,-396C105.38,-396 44.38,-396 44.38,-396 38.38,-396 32.38,-390 32.38,-384 32.38,-384 32.38,-372 32.38,-372 32.38,-366 38.38,-360 44.38,-360 44.38,-360 105.38,-360 105.38,-360 111.38,-360 117.38,-366 117.38,-372 117.38,-372 117.38,-384 117.38,-384 117.38,-390 111.38,-396 105.38,-396"/>
<text xml:space="preserve" text-anchor="middle" x="74.88" y="-375.62" font-family="sans" font-size="10.00">motifs_identify</text>
</g>
<!-- 18&#45;&gt;2 -->
<g id="edge6" class="edge">
<title>18&#45;&gt;2</title>
<path fill="none" stroke="grey" stroke-width="2" d="M74.91,-359.02C75.95,-338.94 80.76,-306.79 99.88,-288 144.77,-243.86 181.94,-282.74 236.88,-252 237.87,-251.44 275.21,-215.6 302.27,-189.58"/>
<polygon fill="grey" stroke="grey" stroke-width="2" points="304.37,-192.41 309.15,-182.95 299.52,-187.36 304.37,-192.41"/>
</g>
<!-- 18&#45;&gt;17 -->
<g id="edge28" class="edge">
<title>18&#45;&gt;17</title>
<path fill="none" stroke="grey" stroke-width="2" d="M95.82,-359.34C105.18,-351.44 116.42,-341.96 126.74,-333.26"/>
<polygon fill="grey" stroke="grey" stroke-width="2" points="128.95,-335.98 134.33,-326.85 124.43,-330.62 128.95,-335.98"/>
</g>
<!-- 18&#45;&gt;30 -->
<g id="edge45" class="edge">
<title>18&#45;&gt;30</title>
<path fill="none" stroke="grey" stroke-width="2" d="M67.53,-359.48C55.64,-328.12 36.15,-261.44 63.88,-216 75.15,-197.52 95.16,-185.21 114.56,-177.15"/>
<polygon fill="grey" stroke="grey" stroke-width="2" points="115.52,-180.52 123.64,-173.73 113.05,-173.97 115.52,-180.52"/>
</g>
<!-- 19&#45;&gt;18 -->
<g id="edge30" class="edge">
<title>19&#45;&gt;18</title>
<path fill="none" stroke="grey" stroke-width="2" d="M39.88,-935.07C39.88,-908.13 39.88,-855.62 39.88,-811 39.88,-811 39.88,-811 39.88,-521 39.88,-481.15 53.03,-436.78 63.21,-408.42"/>
<polygon fill="grey" stroke="grey" stroke-width="2" points="66.35,-410.02 66.57,-399.43 59.79,-407.57 66.35,-410.02"/>
</g>
<!-- 20 -->
<g id="node21" class="node">
<title>20</title>
<path fill="none" stroke="#80d856" stroke-width="2" d="M361.75,-324C361.75,-324 300,-324 300,-324 294,-324 288,-318 288,-312 288,-312 288,-300 288,-300 288,-294 294,-288 300,-288 300,-288 361.75,-288 361.75,-288 367.75,-288 373.75,-294 373.75,-300 373.75,-300 373.75,-312 373.75,-312 373.75,-318 367.75,-324 361.75,-324"/>
<text xml:space="preserve" text-anchor="middle" x="330.88" y="-303.62" font-family="sans" font-size="10.00">phylo_combine</text>
</g>
<!-- 20&#45;&gt;3 -->
<g id="edge10" class="edge">
<title>20&#45;&gt;3</title>
<path fill="none" stroke="grey" stroke-width="2" d="M330.62,-287.34C330.53,-280.75 330.42,-273.08 330.31,-265.67"/>
<polygon fill="grey" stroke="grey" stroke-width="2" points="333.82,-265.88 330.17,-255.93 326.82,-265.98 333.82,-265.88"/>
</g>
<!-- 21 -->
<g id="node22" class="node">
<title>21</title>
<path fill="none" stroke="#70d856" stroke-width="2" d="M366.12,-396C366.12,-396 297.62,-396 297.62,-396 291.62,-396 285.62,-390 285.62,-384 285.62,-384 285.62,-372 285.62,-372 285.62,-366 291.62,-360 297.62,-360 297.62,-360 366.12,-360 366.12,-360 372.12,-360 378.12,-366 378.12,-372 378.12,-372 378.12,-384 378.12,-384 378.12,-390 372.12,-396 366.12,-396"/>
<text xml:space="preserve" text-anchor="middle" x="331.88" y="-375.62" font-family="sans" font-size="10.00">phylo_draw_tree</text>
</g>
<!-- 21&#45;&gt;20 -->
<g id="edge32" class="edge">
<title>21&#45;&gt;20</title>
<path fill="none" stroke="grey" stroke-width="2" d="M331.62,-359.34C331.53,-352.75 331.42,-345.08 331.31,-337.67"/>
<polygon fill="grey" stroke="grey" stroke-width="2" points="334.82,-337.88 331.17,-327.93 327.82,-337.98 334.82,-337.88"/>
</g>
<!-- 22 -->
<g id="node23" class="node">
<title>22</title>
<path fill="none" stroke="#56d85b" stroke-width="2" d="M366,-468C366,-468 299.75,-468 299.75,-468 293.75,-468 287.75,-462 287.75,-456 287.75,-456 287.75,-444 287.75,-444 287.75,-438 293.75,-432 299.75,-432 299.75,-432 366,-432 366,-432 372,-432 378,-438 378,-444 378,-444 378,-456 378,-456 378,-462 372,-468 366,-468"/>
<text xml:space="preserve" text-anchor="middle" x="332.88" y="-447.62" font-family="sans" font-size="10.00">phylo_run_paup</text>
</g>
<!-- 22&#45;&gt;21 -->
<g id="edge33" class="edge">
<title>22&#45;&gt;21</title>
<path fill="none" stroke="grey" stroke-width="2" d="M332.62,-431.34C332.53,-424.75 332.42,-417.08 332.31,-409.67"/>
<polygon fill="grey" stroke="grey" stroke-width="2" points="335.82,-409.88 332.17,-399.93 328.82,-409.98 335.82,-409.88"/>
</g>
<!-- 23 -->
<g id="node24" class="node">
<title>23</title>
<path fill="none" stroke="#afd856" stroke-width="2" d="M396.75,-540C396.75,-540 275,-540 275,-540 269,-540 263,-534 263,-528 263,-528 263,-516 263,-516 263,-510 269,-504 275,-504 275,-504 396.75,-504 396.75,-504 402.75,-504 408.75,-510 408.75,-516 408.75,-516 408.75,-528 408.75,-528 408.75,-534 402.75,-540 396.75,-540"/>
<text xml:space="preserve" text-anchor="middle" x="335.88" y="-519.62" font-family="sans" font-size="10.00">phylo_add_paup_commands</text>
</g>
<!-- 23&#45;&gt;22 -->
<g id="edge34" class="edge">
<title>23&#45;&gt;22</title>
<path fill="none" stroke="grey" stroke-width="2" d="M335.12,-503.34C334.84,-496.75 334.51,-489.08 334.19,-481.67"/>
<polygon fill="grey" stroke="grey" stroke-width="2" points="337.7,-481.77 333.77,-471.93 330.7,-482.07 337.7,-481.77"/>
</g>
<!-- 24&#45;&gt;23 -->
<g id="edge36" class="edge">
<title>24&#45;&gt;23</title>
<path fill="none" stroke="grey" stroke-width="2" d="M365.36,-647.37C374.38,-637.88 384.12,-625.4 388.88,-612 394.22,-596.92 395,-590.78 388.88,-576 384.85,-566.28 378.08,-557.41 370.7,-549.83"/>
<polygon fill="grey" stroke="grey" stroke-width="2" points="373.09,-547.28 363.4,-543.01 368.32,-552.39 373.09,-547.28"/>
</g>
<!-- 26 -->
<g id="node27" class="node">
<title>26</title>
<path fill="none" stroke="#8fd856" stroke-width="2" d="M367.5,-612C367.5,-612 280.25,-612 280.25,-612 274.25,-612 268.25,-606 268.25,-600 268.25,-600 268.25,-588 268.25,-588 268.25,-582 274.25,-576 280.25,-576 280.25,-576 367.5,-576 367.5,-576 373.5,-576 379.5,-582 379.5,-588 379.5,-588 379.5,-600 379.5,-600 379.5,-606 373.5,-612 367.5,-612"/>
<text xml:space="preserve" text-anchor="middle" x="323.88" y="-591.62" font-family="sans" font-size="10.00">phylo_align_domains</text>
</g>
<!-- 24&#45;&gt;26 -->
<g id="edge40" class="edge">
<title>24&#45;&gt;26</title>
<path fill="none" stroke="grey" stroke-width="2" d="M340.32,-647.34C338.2,-640.59 335.72,-632.69 333.34,-625.11"/>
<polygon fill="grey" stroke="grey" stroke-width="2" points="336.75,-624.28 330.41,-615.79 330.07,-626.38 336.75,-624.28"/>
</g>
<!-- 25&#45;&gt;24 -->
<g id="edge38" class="edge">
<title>25&#45;&gt;24</title>
<path fill="none" stroke="grey" stroke-width="2" d="M357.84,-719.34C356.31,-712.67 354.53,-704.89 352.82,-697.39"/>
<polygon fill="grey" stroke="grey" stroke-width="2" points="356.28,-696.82 350.64,-687.85 349.46,-698.38 356.28,-696.82"/>
</g>
<!-- 26&#45;&gt;23 -->
<g id="edge35" class="edge">
<title>26&#45;&gt;23</title>
<path fill="none" stroke="grey" stroke-width="2" d="M326.9,-575.34C328.03,-568.75 329.35,-561.08 330.62,-553.67"/>
<polygon fill="grey" stroke="grey" stroke-width="2" points="334.05,-554.33 332.29,-543.89 327.16,-553.15 334.05,-554.33"/>
</g>
<!-- 27&#45;&gt;2 -->
<g id="edge4" class="edge">
<title>27&#45;&gt;2</title>
<path fill="none" stroke="grey" stroke-width="2" d="M420.77,-215.15C406,-206.68 388.13,-196.42 372.15,-187.25"/>
<polygon fill="grey" stroke="grey" stroke-width="2" points="373.96,-184.26 363.55,-182.32 370.48,-190.33 373.96,-184.26"/>
</g>
<!-- 27&#45;&gt;30 -->
<g id="edge43" class="edge">
<title>27&#45;&gt;30</title>
<path fill="none" stroke="grey" stroke-width="2" d="M393.06,-218.04C390.29,-217.35 387.55,-216.67 384.88,-216 328.45,-201.98 263.71,-186.29 219.54,-175.65"/>
<polygon fill="grey" stroke="grey" stroke-width="2" points="220.57,-172.3 210.03,-173.36 218.93,-179.1 220.57,-172.3"/>
</g>
<!-- 28 -->
<g id="node29" class="node">
<title>28</title>
<path fill="none" stroke="#d89c56" stroke-width="2" d="M215.75,-252C215.75,-252 118,-252 118,-252 112,-252 106,-246 106,-240 106,-240 106,-228 106,-228 106,-222 112,-216 118,-216 118,-216 215.75,-216 215.75,-216 221.75,-216 227.75,-222 227.75,-228 227.75,-228 227.75,-240 227.75,-240 227.75,-246 221.75,-252 215.75,-252"/>
<text xml:space="preserve" text-anchor="middle" x="166.88" y="-231.62" font-family="sans" font-size="10.00">annot_overlap_regions</text>
</g>
<!-- 28&#45;&gt;2 -->
<g id="edge8" class="edge">
<title>28&#45;&gt;2</title>
<path fill="none" stroke="grey" stroke-width="2" d="M208.43,-215.15C229.04,-206.3 254.18,-195.51 276.23,-186.04"/>
<polygon fill="grey" stroke="grey" stroke-width="2" points="277.53,-189.29 285.33,-182.13 274.76,-182.86 277.53,-189.29"/>
</g>
<!-- 28&#45;&gt;30 -->
<g id="edge47" class="edge">
<title>28&#45;&gt;30</title>
<path fill="none" stroke="grey" stroke-width="2" d="M166.88,-215.34C166.88,-208.75 166.88,-201.08 166.88,-193.67"/>
<polygon fill="grey" stroke="grey" stroke-width="2" points="170.38,-193.93 166.88,-183.93 163.38,-193.93 170.38,-193.93"/>
</g>
<!-- 29 -->
<g id="node30" class="node">
<title>29</title>
<path fill="none" stroke="#568ad8" stroke-width="2" d="M224.25,-108C224.25,-108 153.5,-108 153.5,-108 147.5,-108 141.5,-102 141.5,-96 141.5,-96 141.5,-84 141.5,-84 141.5,-78 147.5,-72 153.5,-72 153.5,-72 224.25,-72 224.25,-72 230.25,-72 236.25,-78 236.25,-84 236.25,-84 236.25,-96 236.25,-96 236.25,-102 230.25,-108 224.25,-108"/>
<text xml:space="preserve" text-anchor="middle" x="188.88" y="-87.62" font-family="sans" font-size="10.00">results_summary</text>
</g>
<!-- 29&#45;&gt;0 -->
<g id="edge1" class="edge">
<title>29&#45;&gt;0</title>
<path fill="none" stroke="grey" stroke-width="2" d="M188.88,-71.34C188.88,-64.75 188.88,-57.08 188.88,-49.67"/>
<polygon fill="grey" stroke="grey" stroke-width="2" points="192.38,-49.93 188.88,-39.93 185.38,-49.93 192.38,-49.93"/>
</g>
<!-- 30&#45;&gt;29 -->
<g id="edge42" class="edge">
<title>30&#45;&gt;29</title>
<path fill="none" stroke="grey" stroke-width="2" d="M172.43,-143.34C174.55,-136.59 177.03,-128.69 179.41,-121.11"/>
<polygon fill="grey" stroke="grey" stroke-width="2" points="182.68,-122.38 182.34,-111.79 176,-120.28 182.68,-122.38"/>
</g>
</g>
</svg>
